<svg width="40" height="40" viewBox="0 0 40 40" fill="none" xmlns="http://www.w3.org/2000/svg">
<rect width="40" height="40" rx="8" fill="#CEDEFF"/>
<path d="M20 30C19.182 30 18.4 29.675 16.837 29.026C12.946 27.41 11 26.602 11 25.243V15.745M20 30C20.818 30 21.6 29.675 23.163 29.026C27.054 27.41 29 26.602 29 25.243V15.745M20 30V20.169M11 15.745C11 16.348 11.802 16.73 13.405 17.492L16.325 18.882C18.13 19.74 19.03 20.17 20 20.17C20.97 20.17 21.87 19.74 23.675 18.882L26.595 17.492C28.198 16.73 29 16.348 29 15.745M11 15.745C11 15.141 11.802 14.759 13.405 13.997L15.5 13M29 15.745C29 15.141 28.198 14.76 26.595 13.998L24.5 13M14 21.152L16 22.135M20.004 10V17M20.004 17C20.267 17.004 20.526 16.82 20.718 16.595L22 15.062M20.004 17C19.75 16.997 19.493 16.814 19.29 16.595L18 15.062" stroke="#165EF0" stroke-width="1.5" stroke-linecap="round" stroke-linejoin="round"/>
</svg>
