<svg width="40" height="40" viewBox="0 0 40 40" fill="none" xmlns="http://www.w3.org/2000/svg">
<rect width="40" height="40.0001" rx="8" fill="#FFFACE"/>
<path d="M20 30.0001C19.182 30.0001 18.4 29.6701 16.837 29.0121C12.946 27.3731 11 26.5541 11 25.1751V15.5421M20 30.0001C20.818 30.0001 21.6 29.6701 23.163 29.0121C27.054 27.3731 29 26.5541 29 25.1751V15.5421M20 30.0001V20.0301C20.97 20.0301 21.871 19.5951 23.675 18.7251L26.595 17.3151C28.198 16.5421 29 16.1551 29 15.5421M11 15.5421C11 16.1551 11.802 16.5411 13.405 17.3141L16.325 18.7241C18.129 19.5941 19.03 20.0281 20 20.0281M11 15.5421C11 14.9301 11.802 14.5431 13.405 13.7701L15 13.0001M29 15.5421C29 14.9301 28.198 14.5431 26.595 13.7701L25.045 13.0221M14 21.0261L16 22.0231M19.996 17.0001V10.0001M19.996 10.0001C19.733 9.99606 19.474 10.1801 19.282 10.4051L18 11.9381M19.996 10.0001C20.25 10.0031 20.507 10.1861 20.71 10.4051L22 11.9381" stroke="#FFE500" stroke-width="1.5" stroke-linecap="round" stroke-linejoin="round"/>
</svg>
