<svg width="39" height="40" viewBox="0 0 39 40" fill="none" xmlns="http://www.w3.org/2000/svg">
<rect width="39" height="40" rx="8" fill="#D8FFCE"/>
<path d="M28 15V20M10 15V25.161C10 26.544 11.946 27.366 15.837 29.009C17.4 29.67 18.182 30 19 30V19.355M22 27C22 27 22.875 27 23.75 29C23.75 29 26.53 24 29 23" stroke="#33FF00" stroke-width="1.5" stroke-linecap="round" stroke-linejoin="round"/>
<path d="M13 20L15 21M24 12L14 17M15.326 17.691L12.405 16.278C10.802 15.502 10 15.114 10 14.5C10 13.886 10.802 13.498 12.405 12.722L15.325 11.309C17.13 10.436 18.03 10 19 10C19.97 10 20.871 10.436 22.674 11.309L25.595 12.722C27.198 13.498 28 13.886 28 14.5C28 15.114 27.198 15.502 25.595 16.278L22.675 17.691C20.87 18.564 19.97 19 19 19C18.03 19 17.129 18.564 15.326 17.691Z" stroke="#33FF00" stroke-width="1.5" stroke-linecap="round" stroke-linejoin="round"/>
</svg>
